<svg width="101" height="86" viewBox="0 0 101 86" fill="none" xmlns="http://www.w3.org/2000/svg">
<path d="M97.7442 32.882L84.1599 7.58993C81.6554 2.91778 76.7591 0 71.43 0H57V7.16486H57.0051C59.6673 7.16486 62.1156 8.62166 63.3673 10.9572L76.9469 36.2543C78.0827 38.3633 78.647 40.679 78.647 42.9999C78.647 45.3211 78.0827 47.6368 76.9469 49.7454L63.3673 75.0423C62.1156 77.3783 59.6673 78.8345 57.0051 78.8345H57V85.9999H71.43C76.7591 85.9999 81.6554 83.0821 84.1599 78.41L97.7442 53.1177C99.4388 49.9526 100.289 46.4785 100.289 42.9999C100.289 39.5211 99.4388 36.0475 97.7442 32.882Z" fill="#111111"/>
<path d="M2.54464 53.1179L16.1289 78.4099C18.6335 83.0821 23.5298 85.9999 28.8589 85.9999L43.2889 85.9999L43.2889 78.835L43.2838 78.835C40.6216 78.835 38.1733 77.3782 36.9216 75.0427L23.342 49.7456C22.2062 47.6366 21.6419 45.3209 21.6419 43C21.6419 40.6788 22.2062 38.3631 23.342 36.2545L36.9216 10.9576C38.1733 8.62153 40.6216 7.16538 43.2838 7.16538L43.2889 7.16538L43.2889 2.32393e-05L28.8589 2.19778e-05C23.5298 2.15119e-05 18.6335 2.91776 16.1289 7.58991L2.54464 32.8821C0.850042 36.0473 -1.09238e-05 39.5213 -1.12279e-05 43C-1.1532e-05 46.4787 0.850041 49.9523 2.54464 53.1179Z" fill="#111111"/>
</svg>